# xmcd
#
# Track frame offsets:
#	150
#	11069
#	24234
#	35340
#	46413
#	57863
#	71578
#	81397
#	93632
#	105908
#	118937
#	130464
#	142243
#	153992
#	165556
#	176543
#	188780
#	200688
#	213097
#	225567
#	237327
#	250205
#	262144
#	275673
#	288575
#
# Disc length: 4021 seconds
#
# Revision: 1
# Processed by: cddbd v1.5.2PL0 Copyright (c) Steve Scherf et al.
# Submitted via: audiograbber 1.83.01
#
DISCID=720fb319
DTITLE=Hank Williams - The Very Best of Hank Williams CD2
DYEAR=2013
DGENRE=Country
TTITLE0=I Can't Help It
TTITLE1=Hey, Good Lookin'
TTITLE2=Crazy Heart
TTITLE3=Lonesome Wistle
TTITLE4=Baby. We're Really In Love
TTITLE5=Ramblin' Man
TTITLE6=Honky Tonk Blues
TTITLE7=Half As Much
TTITLE8=I'm Sorry For You My Friend
TTITLE9=Jambalaya
TTITLE10=Window Shopping
TTITLE11=Settin' The Woods On Fire
TTITLE12=You Win Again
TTITLE13=Kaw-Liga
TTITLE14=I'll never Get Out Of This World Alive
TTITLE15=Your Cheatin' Heart
TTITLE16=Take These Chains from My Heart
TTITLE17=I Won't Be Home No More
TTITLE18=I Saw The Light
TTITLE19=Weary Blues From Waitin'
TTITLE20=I'm A Long Gone Daddy
TTITLE21=I'll Be A Bachelor 'Til I Die
TTITLE22=Beyond The Sunset
TTITLE23=I Can't Get You Off My Mind
TTITLE24=I Heard You Crying In Your Sleep
EXTD=
EXTT0=
EXTT1=
EXTT2=
EXTT3=
EXTT4=
EXTT5=
EXTT6=
EXTT7=
EXTT8=
EXTT9=
EXTT10=
EXTT11=
EXTT12=
EXTT13=
EXTT14=
EXTT15=
EXTT16=
EXTT17=
EXTT18=
EXTT19=
EXTT20=
EXTT21=
EXTT22=
EXTT23=
EXTT24=
PLAYORDER=
